<?xml version="1.0" encoding="UTF-8"?>
<svg version="1.1" xmlns="http://www.w3.org/2000/svg" 
     viewBox="172 419 745 682" 
     width="745" height="682">
<path d="M0 0 C0 1.32 0 2.64 0 4 C-4.14456 6.377225 -8.290597 8.751865 -12.4375 11.125 C-12.751166 11.304525 -13.064833 11.484049 -13.388004 11.669014 C-22.626228 16.955887 -31.890339 22.192269 -41.1875 27.375 C-49.727819 32.138639 -58.198381 36.998561 -66.60498 41.993698 C-69.640183 43.793949 -72.689988 45.568596 -75.742188 47.339844 C-86.731479 53.718928 -97.664774 60.167346 -108.481003 66.835709 C-112.979371 69.607354 -117.49565 72.349555 -122.010498 75.094238 C-123.988339 76.296957 -125.965424 77.500915 -127.942535 78.704834 C-131.483381 80.860949 -135.024805 83.01606 -138.570404 85.164352 C-150.357691 92.308187 -161.991349 99.681413 -173.602905 107.106812 C-177.691325 109.720614 -181.782506 112.330082 -185.875 114.9375 C-186.326162 115.225031 -186.777324 115.512563 -187.242157 115.808807 C-194.40642 120.37269 -201.603055 124.882915 -208.8125 129.375 C-220.212428 136.479313 -231.530212 143.707972 -242.83252 150.966309 C-286.2183 178.82709 -286.2183 178.82709 -296.53743 184.994553 C-297.453086 185.546259 -298.362464 186.108383 -299.269577 186.674026 C-302.412287 188.607141 -305.471049 190.245658 -308.928467 191.541748 C-314.836426 193.87914 -320.178895 196.631253 -323.002878 202.589853 C-325.530485 208.636012 -327.090292 215.030937 -328.677547 221.373409 C-329.438521 224.352303 -330.273447 227.310307 -331.102783 230.270752 C-332.45968 235.139915 -333.781623 240.017197 -335.081543 244.901855 C-336.831952 251.458941 -338.70992 257.972464 -340.660156 264.472656 C-340.734013 264.718906 -340.734013 264.718906 -341.107771 265.965076 C-341.842266 268.411105 -342.579385 270.856331 -343.317902 273.301147 C-344.186042 276.177881 -345.043313 279.057779 -345.898193 281.938477 C-349.908399 295.444093 -354.018786 308.917512 -358.1875 322.375 C-358.325932 322.822223 -358.464364 323.269446 -358.606991 323.730221 C-359.399474 326.290304 -360.193331 328.849953 -360.98938 331.40893 C-361.226902 332.172584 -361.46419 332.936312 -361.701202 333.700125 C-363.395898 339.15791 -365.176422 344.583951 -367 350 C-342.736752 337.986498 -318.669346 322.686723 -299.001465 303.940918 C-297.418138 302.453316 -295.770858 301.042533 -294.125 299.625 C-282.405403 289.421564 -270.775223 278.839972 -260.699219 266.980469 C-259.098586 265.097316 -257.439008 263.272287 -255.772949 261.447021 C-250.867085 256.064343 -246.22551 250.501554 -241.664551 244.825317 C-240.682507 243.6057 -239.69618 242.389565 -238.710373 241.172989 C-237.632712 239.841797 -236.557686 238.508494 -235.483307 237.174652 C-234.961405 236.527263 -234.438785 235.880453 -233.915375 235.234283 C-231.016745 231.652588 -228.295133 228.083323 -225.870361 224.157471 C-224.592639 222.458261 -223.539174 222.097274 -221.484375 221.726562 C-217.749107 221.507831 -215.451163 221.921265 -212.625 224.3125 C-210.078447 226.579885 -209.272206 228.343433 -208.726562 231.664062 C-208.452424 236.957043 -209.585938 241.636038 -211.113281 246.664062 C-211.222624 247.029988 -211.331967 247.395913 -211.444624 247.772926 C-213.914524 256.029823 -216.773442 264.14396 -219.673645 272.257446 C-221.236719 276.633989 -222.772599 281.020146 -224.308594 285.40625 C-224.464918 285.85258 -224.621242 286.298911 -224.782303 286.758766 C-227.979818 295.894915 -231.116313 305.049799 -234.125 314.25 C-234.245245 314.617544 -234.365491 314.985088 -234.48938 315.36377 C-239.562627 330.905162 -243.880513 346.649708 -248.080566 362.446289 C-248.201911 362.901736 -248.323256 363.357183 -248.448277 363.826431 C-249.015327 365.955359 -249.579623 368.084904 -250.136826 370.216431 C-251.182261 374.185181 -252.313545 378.112601 -253.593506 382.012695 C-253.718555 382.398149 -253.843605 382.783603 -253.972444 383.180737 C-254.878077 385.878077 -254.878077 385.878077 -256 387 C-257.375 387.132812 -257.375 387.132812 -259 387.125 C-259.53625 387.127578 -260.0725 387.130156 -260.625 387.132812 C-262 387 -262 387 -263 386 C-268.840412 347.404949 -248.380745 297.962828 -236 262 C-236.336204 262.441665 -236.672407 262.88333 -237.018799 263.338379 C-251.202093 281.962734 -265.588525 300.36768 -281 318 C-281.419106 318.479854 -281.838213 318.959707 -282.27002 319.454102 C-288.784782 326.854956 -295.729626 333.831343 -302.6875 340.8125 C-302.912356 341.038695 -302.912356 341.038695 -304.050262 342.18338 C-311.845718 350.014036 -319.827295 357.330209 -328.6875 363.9375 C-329.028719 364.192906 -329.369938 364.448311 -329.721497 364.711456 C-336.235113 369.572254 -342.913371 374.005806 -350 378 C-350.440054 378.248306 -350.880107 378.496611 -351.333496 378.752441 C-356.156208 381.423909 -361.10093 383.516897 -366.3125 385.3125 C-366.804358 385.484268 -367.296216 385.656035 -367.802979 385.833008 C-368.039803 385.91019 -368.039803 385.91019 -369.238281 386.300781 C-369.651184 386.436536 -370.064087 386.57229 -370.489502 386.712158 C-372.660373 387.125841 -374.797 387.054336 -377 387 C-377.095068 387.59321 -377.190137 388.186421 -377.288086 388.797607 C-378.248223 394.527512 -379.482367 400.166127 -380.890625 405.800781 C-386.512188 428.372836 -391.390632 451.066133 -395.9375 473.875 C-396.011665 474.246755 -396.085829 474.61851 -396.162241 475.00153 C-399.612733 492.298907 -402.966631 509.612341 -406.128906 526.964844 C-406.19079 527.304122 -406.252674 527.643401 -406.316434 527.992961 C-407.548117 534.745993 -408.771158 541.500456 -409.962073 548.260818 C-412.043328 560.061756 -414.285484 571.789879 -417.0625 583.449219 C-417.121555 583.699968 -417.121555 583.699968 -417.42041 584.968912 C-418.740356 590.534974 -420.244767 596.025299 -421.996094 601.471924 C-422.150303 601.9662 -422.304512 602.460476 -422.463394 602.969729 C-423.464906 605.98488 -424.661323 608.770973 -427 611 C-428.42005 611.57255 -429.600278 611.667973 -431.125 611.625 C-431.512444 611.621697 -431.899888 611.618394 -432.299072 611.61499 C-437.008995 611.304915 -440.507446 608.514913 -444.0896 605.664307 C-445.02089 604.984757 -445.956555 604.485866 -447 604 C-446.782712 604.433447 -446.565425 604.866895 -446.341553 605.313477 C-445.533711 606.932848 -444.741809 608.559599 -443.954346 610.188965 C-443.612252 610.891251 -443.265946 611.591503 -442.915283 612.289551 C-442.409989 613.297264 -441.920626 614.311484 -441.433594 615.328125 C-441.275316 615.635587 -441.117038 615.943048 -440.953964 616.259827 C-439.731251 618.875881 -440.126247 620.376207 -441 623 C-444.672931 622.405758 -444.672931 622.405758 -446.109131 620.624023 C-446.391516 620.041689 -446.673901 619.459355 -446.964844 618.859375 C-447.044869 618.69793 -447.044869 618.69793 -447.449844 617.88092 C-447.788224 617.19141 -448.119833 616.498541 -448.445068 615.802734 C-448.919791 614.787858 -449.413261 613.784443 -449.912109 612.78125 C-455.986494 600.364405 -460.106882 587.052645 -464.375 573.9375 C-464.523113 573.483319 -464.671225 573.029139 -464.823826 572.561195 C-472.707044 548.37633 -479.735198 523.949801 -486.591667 499.457024 C-486.981372 498.066468 -487.372269 496.676255 -487.763733 495.286194 C-497.197792 461.781192 -505.134227 427.900464 -513 394 C-513.130835 393.4367 -513.26167 392.8734 -513.396469 392.29303 C-519.928993 364.162623 -525.73702 335.953929 -530.734543 307.510338 C-531.008969 305.948969 -531.284054 304.387718 -531.559204 302.826477 C-537.68737 268.026537 -543.264664 233.244698 -547.1875 198.125 C-547.227583 197.766554 -547.267666 197.408108 -547.308964 197.038799 C-548.721427 184.376047 -549.875719 171.691183 -551 159 C-551.138438 159.540596 -551.276877 160.081191 -551.41951 160.638168 C-563.213396 206.638379 -576.981463 249.831038 -599 294 C-599.234609 294.471575 -599.469219 294.943151 -599.710938 295.429016 C-611.608367 319.314637 -625.682748 342.552932 -643.052246 362.880371 C-643.944551 363.934496 -644.813387 365.003389 -645.675781 366.082031 C-649.457657 370.767202 -653.345958 374.645767 -659.4375 375.9375 C-663.490648 376.302729 -666.551051 375.008855 -670 373 C-670.147034 372.91613 -670.147034 372.91613 -670.891113 372.491699 C-675.858361 369.564523 -679.109832 365.736627 -682.298828 360.983887 C-683 360 -683 360 -683.873047 359.004395 C-685.948199 356.593971 -685.948199 356.593971 -686.091064 354.955811 C-685.751492 353.015072 -685.038816 351.851392 -683.496094 350.640625 C-682.813615 350.171625 -682.127015 349.708593 -681.4375 349.25 C-670.728536 341.507358 -661.014207 331.054948 -653.137695 320.49707 C-651.732987 318.648644 -650.285141 316.837045 -648.835938 315.023438 C-640.918617 305.08308 -633.59627 294.886318 -626.754639 284.178528 C-625.992927 282.988954 -625.22646 281.802561 -624.458984 280.616699 C-597.230245 238.45269 -577.835586 192.516715 -558.399997 134.227715 C-557.906105 132.729594 -557.411261 131.231788 -556.916521 129.733948 C-556.581099 128.716447 -556.247552 127.698346 -555.914169 126.680176 C-554.397611 122.071758 -552.732556 117.531035 -551 113 C-544.839286 112.866071 -544.839286 112.866071 -543 114 C-543 114.66 -543 115.32 -543 116 C-542.34 116 -541.68 116 -541 116 C-540.507093 116.846312 -540.031639 117.702785 -539.5625 118.5625 C-539.295664 119.038164 -539.028828 119.513828 -538.753906 120.003906 C-536.391688 125.402194 -536.790087 132.23663 -536.615128 138.028618 C-536.568924 139.549601 -536.517729 141.070348 -536.46521 142.591125 C-536.38972 144.777482 -536.315447 146.963873 -536.242004 149.150299 C-535.485742 171.419825 -534.284379 193.591092 -532.207092 215.776062 C-532.034815 217.618303 -531.867538 219.460956 -531.701912 221.303805 C-527.219381 271.123717 -519.68335 321.012469 -501.648438 410.931641 C-501.132192 413.371831 -500.619491 415.812744 -500.108639 418.254068 C-490.271182 465.266226 -478.107402 511.74516 -456 581 C-454 581 -454 581 -453.257324 580.399414 C-443.682738 568.356327 -439.437534 552.814431 -434.984375 538.339844 C-434.796694 537.732878 -434.609014 537.125912 -434.415646 536.500553 C-428.352907 516.875938 -422.69474 497.128424 -416.972591 477.402564 C-411.472681 458.444267 -405.928462 439.506488 -400.003906 420.675781 C-399.890476 420.314758 -399.777045 419.953735 -399.660178 419.581771 C-396.011593 407.97111 -392.178261 396.431913 -388 385 C-388.593855 384.827668 -389.18771 384.655337 -389.799561 384.477783 C-394.479818 383.060102 -398.262622 381.688251 -401.8125 378.1875 C-402.184314 377.837117 -402.556128 377.486733 -402.939209 377.125732 C-409.894587 370.400309 -409.894587 370.400309 -410.05455 366.757858 C-410.04807 366.311425 -410.041589 365.864991 -410.034912 365.405029 C-410.029872 364.954678 -410.024831 364.504327 -410.019638 364.040329 C-410.016398 363.868675 -410.016398 363.868675 -410 363 C-409.71487 362.931493 -409.429741 362.862987 -409.135971 362.792404 C-406.132354 362.069445 -403.13095 361.337776 -400.130615 360.601318 C-399.014934 360.328632 -397.898732 360.058072 -396.781982 359.789795 C-395.164387 359.40079 -393.548907 359.003832 -391.933594 358.605469 C-391.444752 358.48971 -390.95591 358.373951 -390.452255 358.254684 C-389.475346 358.010649 -388.504008 357.743238 -387.539536 357.453934 C-386 357 -386 357 -384.233047 356.655807 C-381.65199 355.943494 -379.76947 355.220639 -378.325747 352.930407 C-376.628061 349.414272 -375.567071 345.661556 -374.441406 341.933594 C-374.046933 340.699043 -373.650068 339.465254 -373.250961 338.232193 C-372.307129 335.302091 -371.391606 332.363931 -370.485932 329.421841 C-369.485725 326.177408 -368.454442 322.943195 -367.420092 319.709517 C-364.898426 311.821211 -362.443306 303.912911 -360 296 C-359.639781 294.835121 -359.279522 293.670255 -358.91922 292.505402 C-356.917411 286.030509 -354.926476 279.552323 -352.941559 273.072235 C-352.011567 270.036522 -351.078636 267.001716 -350.145264 263.967041 C-348.80201 259.598963 -347.462581 255.22973 -346.126903 250.85933 C-345.39304 248.458403 -344.657734 246.057938 -343.919189 243.658447 C-339.976261 230.84416 -336.290318 217.998009 -333 205 C-333.536653 205.266272 -334.073306 205.532544 -334.626221 205.806885 C-362.541118 219.604572 -393.463367 233.254237 -425 224 C-433.469239 221.106275 -440.322249 215.874485 -444.375 207.8125 C-447.825606 200.709676 -448.520363 191.718646 -445.97583 184.199951 C-443.48888 177.928346 -439.59977 172.409052 -435.687378 166.958191 C-434.942024 165.919183 -434.200056 164.877797 -433.458008 163.836426 C-426.389434 153.940895 -419.042586 144.426093 -411.001678 135.304245 C-409.197155 133.248619 -407.48124 131.132255 -405.782715 128.988037 C-396.271232 117.009865 -385.279482 106.198086 -374.5 95.375 C-374.131177 95.003498 -373.762354 94.631996 -373.382355 94.249237 C-338.401504 59.074662 -338.401504 59.074662 -318.8125 58.625 C-314.521415 58.849936 -310.42905 59.63851 -307.245117 62.733887 C-300.012809 70.998683 -300.580552 83.127646 -301.205322 93.422852 C-302.689376 114.610958 -307.594537 135.537539 -312.320557 156.195312 C-312.406167 156.569929 -312.491777 156.944545 -312.579982 157.330513 C-312.981757 159.086933 -313.385763 160.842773 -313.794724 162.597534 C-314.66792 166.381862 -315.416141 170.160027 -316 174 C-303.721564 167.716953 -291.55637 161.340261 -279.734863 154.231659 C-276.24109 152.13445 -272.725306 150.075254 -269.207031 148.019531 C-268.904713 147.842854 -268.602395 147.666176 -268.290916 147.484144 C-267.044417 146.755688 -265.797891 146.027279 -264.551315 145.298953 C-255.257879 139.868526 -245.974434 134.422089 -236.75 128.875 C-236.554893 128.75769 -236.554893 128.75769 -235.567535 128.164032 C-231.75764 125.87221 -227.951238 123.574609 -224.145508 121.275879 C-208.699463 111.948412 -193.15161 102.819541 -177.492249 93.854858 C-175.622255 92.783603 -173.753674 91.7099 -171.885162 90.636063 C-158.541059 82.968725 -145.129938 75.422069 -131.682922 67.936829 C-130.554344 67.308585 -129.425886 66.680124 -128.297546 66.051453 C-102.867383 51.883876 -77.196522 38.187377 -51.332275 24.829102 C-44.80842 21.45968 -38.302265 18.059577 -31.8125 14.625 C-24.106325 10.548141 -16.337463 6.606513 -8.51709 2.753418 C-7.226232 2.112351 -5.946911 1.453365 -4.667969 0.789062 C-2.942501 -0.027201 -1.882296 -0.18823 0 0 Z M-319.9375 77.25 C-320.401321 77.600625 -320.865142 77.95125 -321.343018 78.3125 C-329.686128 84.72036 -337.89236 91.5663 -345.18605 99.156525 C-346.88136 100.907925 -348.605798 102.561493 -350.472305 104.128403 C-356.575355 109.259525 -362.132582 114.98064 -367.754639 120.624268 C-369.259415 122.13474 -370.768683 123.640632 -372.279192 125.145369 C-383.56477 136.394582 -383.56477 136.394582 -388.599365 142.38501 C-390.131157 144.193213 -391.80513 145.845834 -393.5 147.5 C-393.664597 147.662422 -393.664597 147.662422 -394.497559 148.484375 C-394.753599 148.737031 -395.009639 148.989687 -395.273438 149.25 C-397.949866 151.929405 -400.393703 154.806066 -402.858398 157.678711 C-403.95176 158.944168 -405.053528 160.201653 -406.158295 161.457138 C-426.710731 184.814425 -426.710731 184.814425 -431.1875 193.5625 C-431.384082 193.943821 -431.580664 194.325142 -431.783203 194.718018 C-433.040531 197.427174 -433.488241 200.027775 -433 203 C-432.230469 204.109375 -432.230469 204.109375 -431.1875 204.75 C-430.851055 204.971719 -430.514609 205.193437 -430.167969 205.421875 C-412.059798 214.385117 -382.931073 202.350222 -365.42691 196.447845 C-356.588763 193.450259 -347.774898 190.376913 -339.25 186.5625 C-338.915539 186.413412 -338.581077 186.264324 -338.236481 186.110718 C-336.712774 185.421549 -335.230935 184.698984 -333.751221 183.916992 C-332.473684 183.248035 -331.251735 182.685294 -329.926514 182.137695 C-326.447343 180.549449 -324.189321 178.863948 -322.69873 175.253174 C-321.493292 171.772156 -320.653183 168.207923 -319.8125 164.625 C-319.484964 163.312805 -319.148766 162.002859 -318.813477 160.692627 C-317.981519 157.412763 -317.196171 154.123426 -316.427063 150.828308 C-316.033508 149.143453 -315.633119 147.460415 -315.22998 145.777832 C-301.257156 87.134338 -301.257156 87.134338 -308.761719 74.742188 C-312.929048 72.244419 -316.564387 74.610889 -319.9375 77.25 Z " fill="#ffffff" transform="translate(888,449)"/>
<g transform="translate(567.0,849.0) scale(0.25)">
<path d="M0 0 C7.14238 3.411636 14.095324 7.608347 20.456726 12.312622 C20.815972 12.569468 21.175217 12.826313 21.545349 13.090942 C23.771593 14.854903 24.492103 16.410441 24.972702 19.185028 C25.05662 21.669872 24.057305 23.610149 22.991882 25.808716 C22.767913 26.296928 22.543943 26.78514 22.313187 27.288147 C21.583733 28.865989 20.834051 30.433071 20.081726 32.000122 C19.572086 33.083041 19.06281 34.166131 18.553894 35.24939 C15.751273 41.169726 12.860147 47.042193 9.644226 52.750122 C9.496024 53.016273 9.496024 53.016273 8.746033 54.363159 C7.894328 55.815453 6.994481 57.190578 6.019226 58.562622 C5.670857 59.058428 5.322488 59.554233 4.963562 60.065063 C3.212611 62.193513 2.003589 63.456585 -0.805237 63.759155 C-5.740294 63.478134 -10.358357 61.470846 -14.793274 59.437622 C-15.135057 59.284999 -15.47684 59.132376 -15.828979 58.975128 C-31.866355 51.803258 -31.866355 51.803258 -35.980774 46.562622 C-36.945942 40.898913 -35.448794 35.749803 -33.480774 30.500122 C-33.349279 30.138782 -33.217785 29.777441 -33.082306 29.405151 C-23.439259 3.010165 -23.439259 3.010165 -14.031555 -3.048706 C-10.14292 -4.487067 -3.542852 -1.579941 0 0 Z " fill="#ffffff" transform="translate(124.98077392578125,23.4373779296875)"/>
<path d="M0 0 C3.720745 1.262309 6.54812 2.936765 9.5625 5.4375 C9.985957 5.78313 10.409414 6.12876 10.845703 6.484863 C15.646955 10.455129 20.244739 14.638675 24.754532 18.933838 C26.451025 20.53243 28.220473 21.992088 30.054688 23.433594 C36.689865 28.87153 36.689865 28.87153 37.224609 32.541504 C37.130167 35.468334 36.491449 38.233541 35.794434 41.067871 C34.92909 44.838506 34.716835 48.491695 34.742188 52.363281 C34.743049 52.701514 34.74391 53.039746 34.744797 53.388227 C34.785665 61.128866 35.914859 68.652712 37.138702 76.279419 C40.76744 99.016316 44.736096 124.733629 31 145 C33.049385 144.383509 34.714883 143.651331 36.496094 142.46875 C36.965796 142.157683 37.435498 141.846616 37.919434 141.526123 C38.420396 141.187502 38.921357 140.848882 39.4375 140.5 C39.966821 140.143977 40.496143 139.787954 41.041504 139.421143 C46.845733 135.479798 52.442886 131.280642 58 127 C58.549208 126.579448 59.098526 126.15904 59.647949 125.73877 C69.080288 118.514159 78.09761 110.865167 87 103 C87.258175 102.772118 87.51635 102.544236 87.782349 102.309448 C90.530755 99.883174 93.270944 97.448015 96 95 C100.261182 98.309372 103.690628 101.738818 107 106 C105.394861 110.223522 102.283888 112.758442 99 115.6875 C98.409876 116.221272 97.8202 116.75554 97.230957 117.290283 C96.046525 118.363465 94.85909 119.433158 93.668945 120.5 C92.205114 121.813134 90.752895 123.138381 89.304688 124.46875 C83.884785 129.431889 78.287064 134.13955 72.558594 138.741699 C71.174744 139.855817 69.801258 140.982178 68.428909 142.110413 C59.300785 149.607301 49.90533 156.561412 40 163 C39.683535 163.206028 39.36707 163.412057 39.041016 163.624329 C24.068649 173.336108 4.047602 185.39481 -14.471191 181.707031 C-30.532881 177.938536 -47.611922 168.698157 -58.046875 155.570312 C-59.161515 153.733898 -60.046052 152.187997 -60 150 C-59.353248 148.396889 -58.391068 147.152539 -57.3125 145.8125 C-57.055332 145.457363 -56.798164 145.102227 -56.533203 144.736328 C-55.206577 143.018559 -54.087617 141.826297 -51.980469 141.175781 C-49.731599 140.976177 -48.935115 141.276419 -47 142.375 C-40.439239 145.622993 -31.621661 145.956642 -24.675781 143.785156 C-21.747599 142.413211 -19.913374 140.574107 -18 138 C-17.641641 137.517891 -17.283281 137.035781 -16.914062 136.539062 C-6.402761 120.337432 -10.06843 95.088049 -13 77 C-13.306638 75.657961 -13.648349 74.331343 -14 73 C-14.150337 73.168102 -14.150337 73.168102 -14.911133 74.018799 C-21.406979 81.249908 -28.079693 88.08144 -35.316406 94.570312 C-37.53649 96.562438 -39.668511 98.614407 -41.75 100.75 C-44.008486 103.063192 -46.354828 105.212483 -48.8125 107.3125 C-52.447644 110.420709 -55.820588 113.75012 -59.147705 117.184814 C-62.900518 121.019433 -66.927333 124.512999 -71 128 C-71.326677 128.279868 -71.653353 128.559735 -71.989929 128.848083 C-105.015721 157.063629 -143.2963 181.719067 -187.701416 184.789154 C-188.507113 184.84511 -189.3125 184.905775 -190.117432 184.971832 C-197.971435 185.585973 -205.081702 183.651194 -211.8125 179.5 C-212.217185 179.251372 -212.62187 179.002744 -213.038818 178.746582 C-226.61853 169.978012 -237.197092 157.03827 -243 142 C-243.275618 142.255798 -243.551235 142.511597 -243.835205 142.775146 C-252.612279 150.897242 -261.751217 158.465771 -271.15686 165.849854 C-272.059116 166.559837 -272.958992 167.27274 -273.858398 167.986328 C-276.892885 170.387752 -279.937691 172.715873 -283.15625 174.870605 C-287.197629 177.936721 -289.635134 180.531281 -291.421875 185.320312 C-291.626619 185.838762 -291.831364 186.357212 -292.042313 186.891373 C-292.708374 188.58936 -293.355368 190.293772 -294 192 C-294.452676 193.180886 -294.905725 194.36163 -295.359131 195.542236 C-296.188509 197.709964 -297.013876 199.879135 -297.834381 202.05023 C-310.006931 234.256043 -325.032507 264.797193 -349.054688 289.989746 C-350.277646 291.29672 -351.437035 292.651804 -352.596924 294.014648 C-359.824129 302.486621 -367.812969 310.038666 -376.583496 316.891113 C-377.525708 317.628708 -378.463586 318.371874 -379.396973 319.120605 C-390.539124 328.053704 -406.603143 340.515681 -421.75 339.40625 C-430.944298 338.129264 -439.583419 329.417065 -444.915283 322.379395 C-449.946406 315.345406 -454.395228 307.192239 -453.223145 298.289551 C-449.611936 277.420401 -433.757593 261.61637 -417.512207 249.184082 C-415.787961 247.83397 -414.110064 246.435948 -412.433594 245.027344 C-404.644477 238.50755 -396.634002 232.535353 -388.202393 226.871582 C-387.393986 226.328536 -386.585636 225.785404 -385.777344 225.242188 C-385.377659 224.973629 -384.977974 224.705071 -384.566177 224.428375 C-381.864973 222.605332 -379.203375 220.734992 -376.566406 218.820312 C-376.385638 218.689092 -376.385638 218.689092 -375.47084 218.02504 C-373.642236 216.693786 -371.820838 215.353416 -370.005127 214.004639 C-366.331815 211.294169 -362.630914 208.728939 -358.715683 206.376831 C-356.719021 205.174959 -354.744631 203.93845 -352.769196 202.702087 C-351.823679 202.124671 -350.8675 201.564238 -349.899994 201.024475 C-340.491259 195.765654 -338.028944 188.304865 -334.849579 178.571014 C-333.992973 175.953677 -333.071371 173.362145 -332.136963 170.771729 C-330.341803 165.781031 -328.594795 160.774527 -326.857361 155.763489 C-326.212687 153.907777 -325.563666 152.053598 -324.914745 150.199368 C-321.065828 139.194621 -317.378154 128.158913 -314 117 C-314.325544 117.386875 -314.651087 117.77375 -314.986496 118.172348 C-318.084541 121.853234 -321.190537 125.527098 -324.31012 129.189758 C-324.933087 129.921412 -325.555217 130.653779 -326.177246 131.38623 C-330.138483 136.030629 -334.216691 140.270063 -338.890625 144.199219 C-340.380096 145.453253 -341.816429 146.747673 -343.234375 148.082031 C-358.454595 162.35336 -381.638183 179.995321 -403.44458 179.662598 C-409.11431 179.248059 -412.86416 176.704595 -417 173 C-417.321943 172.727363 -417.643887 172.454727 -417.975586 172.173828 C-423.632323 167.345048 -428.864896 160.55145 -430 153 C-430.127462 151.371592 -430.140165 149.757712 -430.125 148.125 C-430.128867 147.716367 -430.132734 147.307734 -430.136719 146.886719 C-430.126232 143.520426 -429.625273 140.302979 -429 137 C-429.365369 137.32573 -429.730737 137.65146 -430.107178 137.987061 C-480.265466 182.580415 -480.265466 182.580415 -505.333984 181.179199 C-512.818948 180.374105 -520.747113 175.824999 -525.711426 170.192871 C-529.682433 165.161303 -530.299858 160.384417 -530.375 154.1875 C-530.37778 153.995883 -530.37778 153.995883 -530.391846 153.026184 C-530.468379 142.387479 -527.705038 132.218713 -525 122 C-525.381079 122.366497 -525.762158 122.732993 -526.154785 123.110596 C-534.774095 131.376836 -543.564333 139.164533 -553.116455 146.333923 C-554.007426 147.005598 -554.893935 147.682768 -555.779297 148.361816 C-570.491726 159.635311 -586.168441 169.22141 -603 177 C-603.304813 177.142351 -603.609626 177.284702 -603.923676 177.431366 C-608.892303 179.736198 -613.511358 181.480568 -619 180 C-622.092689 178.583048 -624.530986 176.29085 -627 174 C-627.637982 173.441361 -628.276002 172.882767 -628.914062 172.324219 C-633.193285 168.441262 -635.84037 164.34102 -638 159 C-638.182483 158.550681 -638.364966 158.101362 -638.552979 157.638428 C-639.083057 155.695578 -639.029262 153.970237 -638.878906 151.988281 C-638.855295 151.615193 -638.831684 151.242105 -638.807358 150.857712 C-638.731275 149.675533 -638.647021 148.494103 -638.5625 147.3125 C-638.509223 146.507197 -638.456483 145.701859 -638.404297 144.896484 C-638.275737 142.930522 -638.13985 140.96519 -638 139 C-638.452461 139.42668 -638.904922 139.853359 -639.371094 140.292969 C-646.833799 147.185252 -654.946903 153.245256 -663.08075 159.313843 C-663.879309 159.909913 -664.676363 160.508001 -665.473145 161.106445 C-670.955612 165.198479 -676.757765 168.744175 -682.625 172.25 C-682.803132 172.357571 -682.803132 172.357571 -683.70459 172.901947 C-692.294437 178.068998 -700.733068 181.911905 -711 180 C-719.741635 177.422127 -726.829183 171.505821 -733 165 C-733.186914 164.817034 -733.186914 164.817034 -734.132812 163.891113 C-737.081834 160.717998 -738.05765 157.408112 -738.062866 153.130798 C-737.847432 149.25571 -736.680383 145.524972 -735.625 141.8125 C-735.349885 140.809229 -735.075325 139.805807 -734.80127 138.802246 C-733.897009 135.526144 -732.952101 132.26247 -732 129 C-731.839109 128.445562 -731.678218 127.891124 -731.512451 127.319885 C-726.176162 108.967271 -719.895565 91.03153 -713.247082 73.123302 C-711.389195 68.116061 -709.627909 63.086566 -708 58 C-708.107516 58.120044 -708.107516 58.120044 -708.651611 58.727539 C-709.313955 59.466528 -709.976674 60.20518 -710.639648 60.943604 C-711.439137 61.834124 -712.237937 62.725264 -713.036133 63.616943 C-715.192485 66.018784 -717.366048 68.398637 -719.589844 70.738281 C-745.789917 98.42981 -766.304347 133.442163 -780.120117 168.840332 C-780.299045 169.298397 -780.477973 169.756463 -780.662323 170.228409 C-780.997101 171.094205 -781.326819 171.961981 -781.650421 172.832016 C-782.458468 174.937222 -783.120199 176.625348 -785 178 C-792.911779 180.352353 -802.093157 176.565454 -809 173 C-812.556492 170.957412 -815.828034 168.593703 -819 166 C-819.294067 165.76249 -819.588135 165.52498 -819.891113 165.280273 C-823.254193 162.49378 -824.592113 160.343619 -825 156 C-824.850464 154.080941 -824.437318 152.259919 -823.988281 150.390625 C-823.92627 150.117024 -823.92627 150.117024 -823.612457 148.732437 C-823.191718 146.901765 -822.753385 145.075919 -822.3125 143.25 C-822.161609 142.611944 -822.010718 141.973889 -821.855255 141.316498 C-818.948444 129.037047 -815.495557 116.916868 -811.9375 104.8125 C-811.812271 104.386228 -811.687042 103.959956 -811.558018 103.520767 C-807.864973 90.963191 -803.981682 78.468822 -800 66 C-805.301364 71.086231 -810.089769 76.387211 -814.675781 82.128906 C-816.150625 83.971689 -817.659152 85.766231 -819.230469 87.527344 C-836.990998 107.624984 -850.345129 132.018218 -861.9375 156.0625 C-862.207267 156.622003 -862.477033 157.181507 -862.754974 157.757965 C-865.076283 162.593957 -867.388994 167.423998 -869.383301 172.405762 C-869.49378 172.680873 -869.49378 172.680873 -870.052872 174.073105 C-870.466833 175.117183 -870.872215 176.16472 -871.267319 177.21608 C-872.393086 180.072176 -873.18211 181.659483 -876 183 C-882.498677 184.482457 -889.105584 181.319558 -894.557617 178.072266 C-901.919278 173.418597 -908.683654 168.079451 -914.941406 162.012939 C-915.665448 161.320124 -916.409027 160.647317 -917.167969 159.99292 C-919.937085 157.512455 -919.937085 157.512455 -920.242188 155.027344 C-920.142959 154.327054 -920.019184 153.629933 -919.875 152.9375 C-919.815139 152.561174 -919.755278 152.184849 -919.693604 151.797119 C-919.485041 150.526409 -919.242869 149.264578 -919 148 C-918.822693 146.98985 -918.646965 145.979422 -918.472656 144.96875 C-918.007196 142.307458 -917.513166 139.652477 -917 137 C-917.25467 137.209795 -917.509341 137.41959 -917.771729 137.635742 C-920.882282 140.195518 -924.002398 142.743433 -927.125916 145.287354 C-928.012616 146.010286 -928.898231 146.734533 -929.783691 147.458984 C-940.96237 156.595648 -952.402004 164.968527 -964.8125 172.375 C-965.163266 172.586507 -965.514032 172.798014 -965.875427 173.01593 C-974.401853 178.134593 -982.824725 181.894837 -993 180 C-1001.741635 177.422127 -1008.829183 171.505821 -1015 165 C-1015.373828 164.634067 -1015.747656 164.268135 -1016.132812 163.891113 C-1019.072449 160.728097 -1020.085864 157.428378 -1020.071411 153.159668 C-1019.81518 148.998645 -1018.52301 144.983391 -1017.375 141 C-1017.06259 139.882182 -1016.750256 138.764342 -1016.437988 137.646484 C-1005.670094 99.624626 -993.212636 60.193995 -975 25 C-969.456133 25.357805 -965.480195 26.965799 -960.8125 29.875 C-960.652671 29.972264 -960.652671 29.972264 -959.843842 30.464478 C-952.783461 34.783028 -946.728161 40.035176 -941 46 C-940.586694 46.382207 -940.173389 46.764414 -939.747559 47.158203 C-938.072862 48.873711 -937.099553 50.180349 -936.806396 52.593994 C-937.319402 59.358639 -940.200535 65.864862 -942.509689 72.184486 C-943.004712 73.543642 -943.493157 74.905125 -943.981773 76.266594 C-947.67088 86.540789 -951.540539 96.743691 -955.444214 106.937897 C-958.478676 114.871104 -961.415969 122.824358 -964.125 130.875 C-964.269657 131.298799 -964.414314 131.722599 -964.563354 132.159241 C-966.242148 137.098288 -967.492979 141.784623 -968 147 C-963.602562 146.560067 -960.516618 145.475232 -956.875 143 C-956.404734 142.689497 -955.934468 142.378994 -955.449951 142.059082 C-946.274157 135.917623 -937.529205 129.077713 -929.079102 121.974121 C-928.398074 121.402977 -927.716759 120.832176 -927.035156 120.261719 C-926.69854 119.979978 -926.361923 119.698237 -926.015106 119.407959 C-924.118265 117.844707 -922.194142 116.428553 -920.118439 115.112778 C-908.007335 107.427151 -905.563278 96.525914 -902.00704 83.213722 C-899.864727 75.201488 -897.172856 67.401376 -894.38903 59.592499 C-894.001376 58.503865 -893.615828 57.414507 -893.230774 56.324951 C-888.986606 44.331662 -884.299067 32.570851 -879 21 C-875.340748 21.535776 -872.422875 22.59748 -869.191406 24.371094 C-868.969541 24.490073 -868.969541 24.490073 -867.846771 25.092178 C-866.413908 25.865529 -864.987785 26.650279 -863.5625 27.4375 C-863.075003 27.704336 -862.587505 27.971172 -862.085236 28.246094 C-851.654593 33.971529 -842.248644 40.525532 -833 48 C-833.57075 52.109466 -834.500079 55.91607 -835.847656 59.835938 C-836.02381 60.360153 -836.199963 60.884368 -836.381454 61.424469 C-836.937542 63.076122 -837.499894 64.725558 -838.0625 66.375 C-838.443778 67.503765 -838.824641 68.63267 -839.205078 69.761719 C-840.131933 72.50945 -841.063922 75.255397 -842 78 C-837.335795 72.898405 -832.761653 67.770499 -828.4375 62.375 C-825.43449 58.639629 -822.312116 55.169284 -818.867676 51.838379 C-817.009711 50.035465 -815.274115 48.196253 -813.614746 46.209229 C-806.998755 38.298629 -799.171261 30.334931 -790.125 25.25 C-789.7096 25.010073 -789.294199 24.770146 -788.866211 24.522949 C-785.168604 22.627304 -781.065827 22.013801 -777.043701 23.307617 C-774.565982 24.288472 -772.257134 25.572104 -769.9375 26.875 C-769.197158 27.27826 -768.45676 27.681415 -767.716309 28.084473 C-760.901321 31.850475 -754.409459 36.174662 -748.290039 40.991211 C-747 42 -747 42 -745.920898 42.672852 C-744.901347 43.398147 -744.477713 43.839057 -744 45 C-743.433019 52.374424 -747.213239 60.18902 -749.5625 67 C-749.993102 68.263797 -750.421277 69.528399 -750.849609 70.792969 C-751.891744 73.864751 -752.942423 76.933502 -754 80 C-753.81086 79.783186 -753.621721 79.566371 -753.426849 79.342987 C-749.475388 74.815186 -745.505428 70.307507 -741.472656 65.851807 C-739.641213 63.826566 -737.816742 61.797427 -736.023438 59.738281 C-726.662802 49.046641 -716.70246 38.196899 -705.375 29.5625 C-704.927292 29.215662 -704.479585 28.868823 -704.018311 28.511475 C-700.438038 25.923382 -696.120272 23.754288 -691.589355 24.111084 C-690.240745 24.4476 -689.02795 24.891648 -687.75 25.4375 C-687.517646 25.530192 -687.517646 25.530192 -686.341797 25.999268 C-675.550902 30.536018 -659.800645 39.818997 -655 51 C-654.441235 58.177806 -658.097804 65.583711 -660.509689 72.184486 C-661.004712 73.543642 -661.493157 74.905125 -661.981773 76.266594 C-665.67088 86.540789 -669.540539 96.743691 -673.444214 106.937897 C-676.478676 114.871104 -679.415969 122.824358 -682.125 130.875 C-682.269657 131.298799 -682.414314 131.722599 -682.563354 132.159241 C-684.242148 137.098288 -685.492979 141.784623 -686 147 C-681.602562 146.560067 -678.516618 145.475232 -674.875 143 C-674.404734 142.689497 -673.934468 142.378994 -673.449951 142.059082 C-657.886212 131.642103 -643.467526 119.349715 -629.366959 107.05455 C-627.643213 105.55252 -625.902704 104.072629 -624.152344 102.601562 C-619.161753 98.348647 -615.359708 94.0218 -611.734375 88.570312 C-592.125377 59.156816 -557.688722 33.065067 -524.25 21.3125 C-523.809463 21.151528 -523.368926 20.990557 -522.915039 20.824707 C-518.115064 19.322186 -513.475115 20.131687 -509.038239 22.351883 C-507.661734 23.085472 -506.309782 23.85491 -504.965576 24.645996 C-503.941814 25.247466 -502.908898 25.829805 -501.873047 26.410156 C-497.529216 28.883462 -493.723731 31.660694 -490 35 C-490.705765 37.755684 -490.705765 37.755684 -491.99292 38.824463 C-492.197115 38.931415 -492.197115 38.931415 -493.230469 39.472656 C-493.696545 39.727085 -494.162622 39.981514 -494.642822 40.243652 C-495.152566 40.513872 -495.66231 40.784092 -496.1875 41.0625 C-510.594005 49.093072 -523.404401 59.660867 -535.539062 70.761719 C-537.161017 72.245402 -538.80021 73.7044 -540.460938 75.144531 C-555.104424 87.90264 -574.090108 106.931449 -575.9375 127.4375 C-576.00603 128.6347 -576.022765 129.799948 -576 131 C-563.851931 130.930384 -554.050874 122.211819 -545 115 C-544.695378 114.757475 -544.390757 114.51495 -544.076904 114.265076 C-531.074707 103.898616 -518.190763 93.316138 -506 82 C-505.661943 81.690625 -505.323887 81.38125 -504.975586 81.0625 C-500.253149 76.710542 -496.209126 71.913993 -492.25 66.875 C-492.017254 66.57913 -491.784507 66.28326 -491.544708 65.978424 C-488.507272 62.100941 -485.669593 58.140324 -483 54 C-479.331958 55.476955 -477.518374 57.431725 -475.25 60.625 C-475.081093 60.860375 -475.081093 60.860375 -474.226318 62.051514 C-471.300769 66.282257 -468.880732 70.72796 -466.5625 75.3125 C-466.389242 75.650255 -466.215984 75.988009 -466.037476 76.335999 C-461.109354 86.019811 -461.109354 86.019811 -462.490967 90.642822 C-463.136436 92.177778 -463.825468 93.661504 -464.573883 95.147369 C-472.646317 111.298791 -476.711327 129.079063 -478 147 C-472.475827 145.186464 -468.049288 143.007415 -463.375 139.5 C-462.773781 139.058614 -462.172209 138.617708 -461.570312 138.177246 C-459.700639 136.801703 -457.848404 135.403941 -456 134 C-455.852422 133.888194 -455.852422 133.888194 -455.105591 133.322388 C-446.393074 126.712933 -438.041603 119.713746 -429.785156 112.546875 C-427.001717 110.132307 -424.202951 107.735572 -421.404785 105.338104 C-420.533644 104.59134 -419.66322 103.843748 -418.792969 103.095947 C-418.656759 102.979106 -418.656759 102.979106 -417.967453 102.387817 C-417.429406 101.925908 -416.892054 101.463188 -416.355423 100.999634 C-415.066622 99.890995 -413.76803 98.819139 -412.426514 97.773193 C-408.908628 95.007188 -406.356681 92.035166 -403.901672 88.324432 C-399.616007 81.872848 -394.779913 76.220187 -389.445312 70.621094 C-387.835568 68.931471 -386.342725 67.209161 -384.910156 65.367188 C-383.22019 63.211419 -381.413016 61.436492 -379.3125 59.6875 C-378.599606 59.082802 -377.887391 58.477303 -377.175781 57.871094 C-376.813071 57.562847 -376.450361 57.2546 -376.07666 56.937012 C-375.040125 56.034921 -374.038767 55.106841 -373.042969 54.160156 C-358.176944 40.152623 -339.830629 30.224583 -321.054688 22.566406 C-320.704198 22.422011 -320.353709 22.277616 -319.992599 22.128845 C-314.225853 19.814841 -307.896046 18.584757 -301.990479 21.076599 C-300.294556 21.86844 -298.646189 22.735265 -297 23.625 C-296.298467 23.98949 -295.596641 24.353419 -294.894531 24.716797 C-289.899167 27.341021 -285.269714 30.29209 -281 34 C-283.755578 36.990116 -286.635945 39.209237 -290.0625 41.375 C-303.84885 50.361333 -316.968644 60.312064 -329.217957 71.299377 C-329.987347 71.988664 -330.759181 72.675106 -331.531738 73.36084 C-334.803575 76.269816 -338.022471 79.232501 -341.200562 82.243469 C-341.748265 82.761776 -342.296896 83.279103 -342.846313 83.795593 C-349.703443 90.242062 -356.20536 96.759831 -361.6875 104.4375 C-361.890145 104.718647 -362.092789 104.999793 -362.301575 105.289459 C-366.425587 111.069076 -369.578056 116.697188 -369.1875 123.9375 C-369.180732 124.184033 -369.180732 124.184033 -369.146484 125.431641 C-369.111803 126.622358 -369.063013 127.810506 -369 129 C-344.793579 126.692198 -324.89213 104.732017 -309.789062 87.0625 C-308.564795 85.635323 -307.30946 84.246758 -306.023438 82.875 C-298.736666 75.061007 -292.400123 66.540639 -286 58 C-285.441263 57.255031 -284.882507 56.510076 -284.32373 55.765137 C-283.882481 55.176763 -283.441235 54.588385 -283 54 C-279.683328 54.567795 -278.135036 55.418849 -276.046875 58.027344 C-275.792265 58.335666 -275.537655 58.643989 -275.27533 58.961655 C-272.678819 62.216523 -270.698402 65.762203 -268.812012 69.46167 C-268.245803 70.570721 -267.665154 71.671247 -267.082031 72.771484 C-266.004251 74.824747 -264.983223 76.899936 -264 79 C-263.754434 79.521909 -263.508867 80.043818 -263.255859 80.581543 C-260.236508 88.05671 -263.955195 96.967527 -266.089844 104.289062 C-266.397992 105.361708 -266.705645 106.434495 -267.012833 107.507416 C-267.653978 109.742324 -268.2989 111.97609 -268.947021 114.208984 C-269.773492 117.056328 -270.593673 119.905432 -271.411429 122.755289 C-272.198122 125.496274 -272.987461 128.236495 -273.777344 130.976562 C-273.851432 131.233794 -273.851432 131.233794 -274.226362 132.535542 C-277.232678 142.957806 -277.232678 142.957806 -279 148 C-273.150183 143.393651 -267.402918 138.686084 -261.735748 133.858185 C-257.439695 130.198443 -253.102969 126.598934 -248.689697 123.080322 C-247.441413 122.073468 -246.2182 121.042992 -245 120 C-244.556885 119.636968 -244.11377 119.273936 -243.657227 118.899902 C-240.213564 115.839572 -239.01366 112.828764 -238.002106 108.444244 C-233.257753 88.32224 -222.224389 70.879591 -208.035156 56.086426 C-207.067878 55.07124 -206.126188 54.037645 -205.1875 52.996094 C-194.894773 41.839563 -181.747144 34.095778 -168 28 C-167.446348 27.750244 -166.892695 27.500488 -166.322266 27.243164 C-152.769475 21.233593 -133.959632 15.330706 -119.391357 20.338623 C-105.923757 25.657577 -94.080072 37.787894 -88.336426 51.008545 C-86.030323 56.961533 -86.036673 62.95626 -88.384521 68.913086 C-97.742272 89.324523 -122.996517 101.784617 -141.806152 111.825195 C-143.599227 112.782652 -145.383594 113.755033 -147.165344 114.733368 C-155.273757 119.180476 -163.508435 123.25615 -171.9375 127.0625 C-172.378823 127.262718 -172.820145 127.462935 -173.274841 127.66922 C-174.523551 128.233611 -175.774755 128.791937 -177.027344 129.347656 C-177.400492 129.515919 -177.77364 129.684182 -178.158096 129.857544 C-179.917455 130.627774 -181.048149 131 -183 131 C-183.024958 133.329501 -183.04298 135.658922 -183.054932 137.988525 C-183.059921 138.778904 -183.066715 139.569273 -183.075439 140.359619 C-183.12185 144.675771 -183.160104 148.800344 -182 153 C-177.087464 154.652966 -172.717615 155.358018 -167.5 155.3125 C-167.157512 155.310345 -166.815024 155.30819 -166.462158 155.305969 C-139.084551 155.033704 -114.677341 140.791218 -94 124 C-93.703697 123.759791 -93.407394 123.519583 -93.102112 123.272095 C-83.758163 115.672893 -75.013111 107.427326 -66.296204 99.125259 C-63.712269 96.667359 -61.107416 94.233138 -58.492188 91.808594 C-38.898626 73.624172 -20.850455 54.425841 -14.217621 27.869415 C-12.728303 21.944714 -10.68845 16.58105 -7.9375 11.125 C-7.771372 10.789844 -7.605244 10.454688 -7.434082 10.109375 C-5.471263 6.187627 -3.37857 2.864562 0 0 Z M-156.081802 62.18869 C-164.994836 75.036087 -174.74081 91.565677 -178 107 C-173.079484 105.554334 -169.321066 102.501826 -165.3125 99.4375 C-164.959951 99.170553 -164.607403 98.903607 -164.244171 98.628571 C-158.585286 94.340468 -153.158355 89.885995 -148.024414 84.973145 C-147.059632 84.056647 -146.076822 83.16542 -145.085938 82.277344 C-137.805578 75.597284 -130.490153 65.488596 -129.757812 55.355469 C-129.511409 48.726162 -129.511409 48.726162 -130.851562 46.734375 C-140.096804 40.822452 -151.677477 55.952284 -156.081802 62.18869 Z M-356 228 C-372.149705 239.78457 -388.040779 251.719304 -403 265 C-403.372056 265.329194 -403.744111 265.658389 -404.127441 265.997559 C-415.61195 276.318931 -423.812143 288.587718 -425.993408 303.911865 C-425.995583 304.27095 -425.997759 304.630034 -426 305 C-425 306 -425 306 -423.757812 306.160156 C-410.268018 305.35335 -397.400501 288.195359 -389 279 C-385.29582 274.820671 -381.941417 270.383015 -378.647217 265.878296 C-377.739883 264.647012 -376.815963 263.42857 -375.892334 262.209488 C-370.06823 254.516258 -364.69303 246.679851 -359.801758 238.356934 C-359.077305 237.130835 -358.336345 235.917348 -357.585938 234.707031 C-357.202602 234.075838 -356.819734 233.44436 -356.4375 232.8125 C-356.126836 232.30332 -355.816172 231.794141 -355.496094 231.269531 C-355 230 -355 230 -355.468994 228.920654 C-355.55661 228.768746 -355.55661 228.768746 -356 228 Z " fill="#ffffff" transform="translate(1041,92)"/>
</g>
</svg>