<?xml version="1.0" encoding="UTF-8"?>
<svg version="1.1" xmlns="http://www.w3.org/2000/svg" viewBox="172 419 745 682" width="745" height="682">
<path d="M0 0 C0 1.32 0 2.64 0 4 C-4.14456 6.377225 -8.290597 8.751865 -12.4375 11.125 C-12.751166 11.304525 -13.064833 11.484049 -13.388004 11.669014 C-22.626228 16.955887 -31.890339 22.192269 -41.1875 27.375 C-49.727819 32.138639 -58.198381 36.998561 -66.60498 41.993698 C-69.640183 43.793949 -72.689988 45.568596 -75.742188 47.339844 C-86.731479 53.718928 -97.664774 60.167346 -108.481003 66.835709 C-112.979371 69.607354 -117.49565 72.349555 -122.010498 75.094238 C-123.988339 76.296957 -125.965424 77.500915 -127.942535 78.704834 C-131.483381 80.860949 -135.024805 83.01606 -138.570404 85.164352 C-150.357691 92.308187 -161.991349 99.681413 -173.602905 107.106812 C-177.691325 109.720614 -181.782506 112.330082 -185.875 114.9375 C-186.326162 115.225031 -186.777324 115.512563 -187.242157 115.808807 C-194.40642 120.37269 -201.603055 124.882915 -208.8125 129.375 C-220.212428 136.479313 -231.530212 143.707972 -242.83252 150.966309 C-286.2183 178.82709 -286.2183 178.82709 -296.53743 184.994553 C-297.453086 185.546259 -298.362464 186.108383 -299.269577 186.674026 C-302.412287 188.607141 -305.471049 190.245658 -308.928467 191.541748 C-314.836426 193.87914 -320.178895 196.631253 -323.002878 202.589853 C-325.530485 208.636012 -327.090292 215.030937 -328.677547 221.373409 C-329.438521 224.352303 -330.273447 227.310307 -331.102783 230.270752 C-332.45968 235.139915 -333.781623 240.017197 -335.081543 244.901855 C-336.831952 251.458941 -338.70992 257.972464 -340.660156 264.472656 C-340.734013 264.718906 -340.734013 264.718906 -341.107771 265.965076 C-341.842266 268.411105 -342.579385 270.856331 -343.317902 273.301147 C-344.186042 276.177881 -345.043313 279.057779 -345.898193 281.938477 C-349.908399 295.444093 -354.018786 308.917512 -358.1875 322.375 C-358.325932 322.822223 -358.464364 323.269446 -358.606991 323.730221 C-359.399474 326.290304 -360.193331 328.849953 -360.98938 331.40893 C-361.226902 332.172584 -361.46419 332.936312 -361.701202 333.700125 C-363.395898 339.15791 -365.176422 344.583951 -367 350 C-342.736752 337.986498 -318.669346 322.686723 -299.001465 303.940918 C-297.418138 302.453316 -295.770858 301.042533 -294.125 299.625 C-282.405403 289.421564 -270.775223 278.839972 -260.699219 266.980469 C-259.098586 265.097316 -257.439008 263.272287 -255.772949 261.447021 C-250.867085 256.064343 -246.22551 250.501554 -241.664551 244.825317 C-240.682507 243.6057 -239.69618 242.389565 -238.710373 241.172989 C-237.632712 239.841797 -236.557686 238.508494 -235.483307 237.174652 C-234.961405 236.527263 -234.438785 235.880453 -233.915375 235.234283 C-231.016745 231.652588 -228.295133 228.083323 -225.870361 224.157471 C-224.592639 222.458261 -223.539174 222.097274 -221.484375 221.726562 C-217.749107 221.507831 -215.451163 221.921265 -212.625 224.3125 C-210.078447 226.579885 -209.272206 228.343433 -208.726562 231.664062 C-208.452424 236.957043 -209.585938 241.636038 -211.113281 246.664062 C-211.222624 247.029988 -211.331967 247.395913 -211.444624 247.772926 C-213.914524 256.029823 -216.773442 264.14396 -219.673645 272.257446 C-221.236719 276.633989 -222.772599 281.020146 -224.308594 285.40625 C-224.464918 285.85258 -224.621242 286.298911 -224.782303 286.758766 C-227.979818 295.894915 -231.116313 305.049799 -234.125 314.25 C-234.245245 314.617544 -234.365491 314.985088 -234.48938 315.36377 C-239.562627 330.905162 -243.880513 346.649708 -248.080566 362.446289 C-248.201911 362.901736 -248.323256 363.357183 -248.448277 363.826431 C-249.015327 365.955359 -249.579623 368.084904 -250.136826 370.216431 C-251.182261 374.185181 -252.313545 378.112601 -253.593506 382.012695 C-253.718555 382.398149 -253.843605 382.783603 -253.972444 383.180737 C-254.878077 385.878077 -254.878077 385.878077 -256 387 C-257.375 387.132812 -257.375 387.132812 -259 387.125 C-259.53625 387.127578 -260.0725 387.130156 -260.625 387.132812 C-262 387 -262 387 -263 386 C-268.840412 347.404949 -248.380745 297.962828 -236 262 C-236.336204 262.441665 -236.672407 262.88333 -237.018799 263.338379 C-251.202093 281.962734 -265.588525 300.36768 -281 318 C-281.419106 318.479854 -281.838213 318.959707 -282.27002 319.454102 C-288.784782 326.854956 -295.729626 333.831343 -302.6875 340.8125 C-302.912356 341.038695 -302.912356 341.038695 -304.050262 342.18338 C-311.845718 350.014036 -319.827295 357.330209 -328.6875 363.9375 C-329.028719 364.192906 -329.369938 364.448311 -329.721497 364.711456 C-336.235113 369.572254 -342.913371 374.005806 -350 378 C-350.440054 378.248306 -350.880107 378.496611 -351.333496 378.752441 C-356.156208 381.423909 -361.10093 383.516897 -366.3125 385.3125 C-366.804358 385.484268 -367.296216 385.656035 -367.802979 385.833008 C-368.039803 385.91019 -368.039803 385.91019 -369.238281 386.300781 C-369.651184 386.436536 -370.064087 386.57229 -370.489502 386.712158 C-372.660373 387.125841 -374.797 387.054336 -377 387 C-377.095068 387.59321 -377.190137 388.186421 -377.288086 388.797607 C-378.248223 394.527512 -379.482367 400.166127 -380.890625 405.800781 C-386.512188 428.372836 -391.390632 451.066133 -395.9375 473.875 C-396.011665 474.246755 -396.085829 474.61851 -396.162241 475.00153 C-399.612733 492.298907 -402.966631 509.612341 -406.128906 526.964844 C-406.19079 527.304122 -406.252674 527.643401 -406.316434 527.992961 C-407.548117 534.745993 -408.771158 541.500456 -409.962073 548.260818 C-412.043328 560.061756 -414.285484 571.789879 -417.0625 583.449219 C-417.121555 583.699968 -417.121555 583.699968 -417.42041 584.968912 C-418.740356 590.534974 -420.244767 596.025299 -421.996094 601.471924 C-422.150303 601.9662 -422.304512 602.460476 -422.463394 602.969729 C-423.464906 605.98488 -424.661323 608.770973 -427 611 C-428.42005 611.57255 -429.600278 611.667973 -431.125 611.625 C-431.512444 611.621697 -431.899888 611.618394 -432.299072 611.61499 C-437.008995 611.304915 -440.507446 608.514913 -444.0896 605.664307 C-445.02089 604.984757 -445.956555 604.485866 -447 604 C-446.782712 604.433447 -446.565425 604.866895 -446.341553 605.313477 C-445.533711 606.932848 -444.741809 608.559599 -443.954346 610.188965 C-443.612252 610.891251 -443.265946 611.591503 -442.915283 612.289551 C-442.409989 613.297264 -441.920626 614.311484 -441.433594 615.328125 C-441.275316 615.635587 -441.117038 615.943048 -440.953964 616.259827 C-439.731251 618.875881 -440.126247 620.376207 -441 623 C-444.672931 622.405758 -444.672931 622.405758 -446.109131 620.624023 C-446.391516 620.041689 -446.673901 619.459355 -446.964844 618.859375 C-447.044869 618.69793 -447.044869 618.69793 -447.449844 617.88092 C-447.788224 617.19141 -448.119833 616.498541 -448.445068 615.802734 C-448.919791 614.787858 -449.413261 613.784443 -449.912109 612.78125 C-455.986494 600.364405 -460.106882 587.052645 -464.375 573.9375 C-464.523113 573.483319 -464.671225 573.029139 -464.823826 572.561195 C-472.707044 548.37633 -479.735198 523.949801 -486.591667 499.457024 C-486.981372 498.066468 -487.372269 496.676255 -487.763733 495.286194 C-497.197792 461.781192 -505.134227 427.900464 -513 394 C-513.130835 393.4367 -513.26167 392.8734 -513.396469 392.29303 C-519.928993 364.162623 -525.73702 335.953929 -530.734543 307.510338 C-531.008969 305.948969 -531.284054 304.387718 -531.559204 302.826477 C-537.68737 268.026537 -543.264664 233.244698 -547.1875 198.125 C-547.227583 197.766554 -547.267666 197.408108 -547.308964 197.038799 C-548.721427 184.376047 -549.875719 171.691183 -551 159 C-551.138438 159.540596 -551.276877 160.081191 -551.41951 160.638168 C-563.213396 206.638379 -576.981463 249.831038 -599 294 C-599.234609 294.471575 -599.469219 294.943151 -599.710938 295.429016 C-611.608367 319.314637 -625.682748 342.552932 -643.052246 362.880371 C-643.944551 363.934496 -644.813387 365.003389 -645.675781 366.082031 C-649.457657 370.767202 -653.345958 374.645767 -659.4375 375.9375 C-663.490648 376.302729 -666.551051 375.008855 -670 373 C-670.147034 372.91613 -670.147034 372.91613 -670.891113 372.491699 C-675.858361 369.564523 -679.109832 365.736627 -682.298828 360.983887 C-683 360 -683 360 -683.873047 359.004395 C-685.948199 356.593971 -685.948199 356.593971 -686.091064 354.955811 C-685.751492 353.015072 -685.038816 351.851392 -683.496094 350.640625 C-682.813615 350.171625 -682.127015 349.708593 -681.4375 349.25 C-670.728536 341.507358 -661.014207 331.054948 -653.137695 320.49707 C-651.732987 318.648644 -650.285141 316.837045 -648.835938 315.023438 C-640.918617 305.08308 -633.59627 294.886318 -626.754639 284.178528 C-625.992927 282.988954 -625.22646 281.802561 -624.458984 280.616699 C-597.230245 238.45269 -577.835586 192.516715 -558.399997 134.227715 C-557.906105 132.729594 -557.411261 131.231788 -556.916521 129.733948 C-556.581099 128.716447 -556.247552 127.698346 -555.914169 126.680176 C-554.397611 122.071758 -552.732556 117.531035 -551 113 C-544.839286 112.866071 -544.839286 112.866071 -543 114 C-543 114.66 -543 115.32 -543 116 C-542.34 116 -541.68 116 -541 116 C-540.507093 116.846312 -540.031639 117.702785 -539.5625 118.5625 C-539.295664 119.038164 -539.028828 119.513828 -538.753906 120.003906 C-536.391688 125.402194 -536.790087 132.23663 -536.615128 138.028618 C-536.568924 139.549601 -536.517729 141.070348 -536.46521 142.591125 C-536.38972 144.777482 -536.315447 146.963873 -536.242004 149.150299 C-535.485742 171.419825 -534.284379 193.591092 -532.207092 215.776062 C-532.034815 217.618303 -531.867538 219.460956 -531.701912 221.303805 C-527.219381 271.123717 -519.68335 321.012469 -501.648438 410.931641 C-501.132192 413.371831 -500.619491 415.812744 -500.108639 418.254068 C-490.271182 465.266226 -478.107402 511.74516 -456 581 C-454 581 -454 581 -453.257324 580.399414 C-443.682738 568.356327 -439.437534 552.814431 -434.984375 538.339844 C-434.796694 537.732878 -434.609014 537.125912 -434.415646 536.500553 C-428.352907 516.875938 -422.69474 497.128424 -416.972591 477.402564 C-411.472681 458.444267 -405.928462 439.506488 -400.003906 420.675781 C-399.890476 420.314758 -399.777045 419.953735 -399.660178 419.581771 C-396.011593 407.97111 -392.178261 396.431913 -388 385 C-388.593855 384.827668 -389.18771 384.655337 -389.799561 384.477783 C-394.479818 383.060102 -398.262622 381.688251 -401.8125 378.1875 C-402.184314 377.837117 -402.556128 377.486733 -402.939209 377.125732 C-409.894587 370.400309 -409.894587 370.400309 -410.05455 366.757858 C-410.04807 366.311425 -410.041589 365.864991 -410.034912 365.405029 C-410.029872 364.954678 -410.024831 364.504327 -410.019638 364.040329 C-410.016398 363.868675 -410.016398 363.868675 -410 363 C-409.71487 362.931493 -409.429741 362.862987 -409.135971 362.792404 C-406.132354 362.069445 -403.13095 361.337776 -400.130615 360.601318 C-399.014934 360.328632 -397.898732 360.058072 -396.781982 359.789795 C-395.164387 359.40079 -393.548907 359.003832 -391.933594 358.605469 C-391.444752 358.48971 -390.95591 358.373951 -390.452255 358.254684 C-389.475346 358.010649 -388.504008 357.743238 -387.539536 357.453934 C-386 357 -386 357 -384.233047 356.655807 C-381.65199 355.943494 -379.76947 355.220639 -378.325747 352.930407 C-376.628061 349.414272 -375.567071 345.661556 -374.441406 341.933594 C-374.046933 340.699043 -373.650068 339.465254 -373.250961 338.232193 C-372.307129 335.302091 -371.391606 332.363931 -370.485932 329.421841 C-369.485725 326.177408 -368.454442 322.943195 -367.420092 319.709517 C-364.898426 311.821211 -362.443306 303.912911 -360 296 C-359.639781 294.835121 -359.279522 293.670255 -358.91922 292.505402 C-356.917411 286.030509 -354.926476 279.552323 -352.941559 273.072235 C-352.011567 270.036522 -351.078636 267.001716 -350.145264 263.967041 C-348.80201 259.598963 -347.462581 255.22973 -346.126903 250.85933 C-345.39304 248.458403 -344.657734 246.057938 -343.919189 243.658447 C-339.976261 230.84416 -336.290318 217.998009 -333 205 C-333.536653 205.266272 -334.073306 205.532544 -334.626221 205.806885 C-362.541118 219.604572 -393.463367 233.254237 -425 224 C-433.469239 221.106275 -440.322249 215.874485 -444.375 207.8125 C-447.825606 200.709676 -448.520363 191.718646 -445.97583 184.199951 C-443.48888 177.928346 -439.59977 172.409052 -435.687378 166.958191 C-434.942024 165.919183 -434.200056 164.877797 -433.458008 163.836426 C-426.389434 153.940895 -419.042586 144.426093 -411.001678 135.304245 C-409.197155 133.248619 -407.48124 131.132255 -405.782715 128.988037 C-396.271232 117.009865 -385.279482 106.198086 -374.5 95.375 C-374.131177 95.003498 -373.762354 94.631996 -373.382355 94.249237 C-338.401504 59.074662 -338.401504 59.074662 -318.8125 58.625 C-314.521415 58.849936 -310.42905 59.63851 -307.245117 62.733887 C-300.012809 70.998683 -300.580552 83.127646 -301.205322 93.422852 C-302.689376 114.610958 -307.594537 135.537539 -312.320557 156.195312 C-312.406167 156.569929 -312.491777 156.944545 -312.579982 157.330513 C-312.981757 159.086933 -313.385763 160.842773 -313.794724 162.597534 C-314.66792 166.381862 -315.416141 170.160027 -316 174 C-303.721564 167.716953 -291.55637 161.340261 -279.734863 154.231659 C-276.24109 152.13445 -272.725306 150.075254 -269.207031 148.019531 C-268.904713 147.842854 -268.602395 147.666176 -268.290916 147.484144 C-267.044417 146.755688 -265.797891 146.027279 -264.551315 145.298953 C-255.257879 139.868526 -245.974434 134.422089 -236.75 128.875 C-236.554893 128.75769 -236.554893 128.75769 -235.567535 128.164032 C-231.75764 125.87221 -227.951238 123.574609 -224.145508 121.275879 C-208.699463 111.948412 -193.15161 102.819541 -177.492249 93.854858 C-175.622255 92.783603 -173.753674 91.7099 -171.885162 90.636063 C-158.541059 82.968725 -145.129938 75.422069 -131.682922 67.936829 C-130.554344 67.308585 -129.425886 66.680124 -128.297546 66.051453 C-102.867383 51.883876 -77.196522 38.187377 -51.332275 24.829102 C-44.80842 21.45968 -38.302265 18.059577 -31.8125 14.625 C-24.106325 10.548141 -16.337463 6.606513 -8.51709 2.753418 C-7.226232 2.112351 -5.946911 1.453365 -4.667969 0.789062 C-2.942501 -0.027201 -1.882296 -0.18823 0 0 Z M-319.9375 77.25 C-320.401321 77.600625 -320.865142 77.95125 -321.343018 78.3125 C-329.686128 84.72036 -337.89236 91.5663 -345.18605 99.156525 C-346.88136 100.907925 -348.605798 102.561493 -350.472305 104.128403 C-356.575355 109.259525 -362.132582 114.98064 -367.754639 120.624268 C-369.259415 122.13474 -370.768683 123.640632 -372.279192 125.145369 C-383.56477 136.394582 -383.56477 136.394582 -388.599365 142.38501 C-390.131157 144.193213 -391.80513 145.845834 -393.5 147.5 C-393.664597 147.662422 -393.664597 147.662422 -394.497559 148.484375 C-394.753599 148.737031 -395.009639 148.989687 -395.273438 149.25 C-397.949866 151.929405 -400.393703 154.806066 -402.858398 157.678711 C-403.95176 158.944168 -405.053528 160.201653 -406.158295 161.457138 C-426.710731 184.814425 -426.710731 184.814425 -431.1875 193.5625 C-431.384082 193.943821 -431.580664 194.325142 -431.783203 194.718018 C-433.040531 197.427174 -433.488241 200.027775 -433 203 C-432.230469 204.109375 -432.230469 204.109375 -431.1875 204.75 C-430.851055 204.971719 -430.514609 205.193437 -430.167969 205.421875 C-412.059798 214.385117 -382.931073 202.350222 -365.42691 196.447845 C-356.588763 193.450259 -347.774898 190.376913 -339.25 186.5625 C-338.915539 186.413412 -338.581077 186.264324 -338.236481 186.110718 C-336.712774 185.421549 -335.230935 184.698984 -333.751221 183.916992 C-332.473684 183.248035 -331.251735 182.685294 -329.926514 182.137695 C-326.447343 180.549449 -324.189321 178.863948 -322.69873 175.253174 C-321.493292 171.772156 -320.653183 168.207923 -319.8125 164.625 C-319.484964 163.312805 -319.148766 162.002859 -318.813477 160.692627 C-317.981519 157.412763 -317.196171 154.123426 -316.427063 150.828308 C-316.033508 149.143453 -315.633119 147.460415 -315.22998 145.777832 C-301.257156 87.134338 -301.257156 87.134338 -308.761719 74.742188 C-312.929048 72.244419 -316.564387 74.610889 -319.9375 77.25 Z " fill="#ffffff" transform="translate(888,449)"/>
</svg>